<svg width="512" height="512" viewBox="0 0 512 512" fill="none" xmlns="http://www.w3.org/2000/svg">
<rect width="512" height="512" rx="30" fill="white"/>
<g clip-path="url(#clip0_1094_854)">
<path d="M361.856 76.0612C350.621 84.4665 340.317 94.4932 330.944 106.141C291.67 77.4479 238.912 73.3519 193.046 84.8932C136.32 99.1652 90.7524 148.296 73.5577 201.736C67.4849 220.637 65.4369 242.376 67.4137 266.952L66.5177 270.429C66.276 271.339 65.8991 271.403 65.3871 270.621C65.06 270.138 65.0102 269.683 65.2377 269.256C65.2892 269.138 65.2981 269.006 65.2629 268.882C65.2277 268.758 65.1505 268.651 65.0446 268.577C64.9387 268.504 64.8107 268.47 64.6824 268.481C64.5542 268.492 64.4338 268.547 64.3417 268.637L62.5711 270.728C62.1302 271.24 61.5897 271.603 60.9497 271.816L55.4671 273.523C54.884 273.707 54.4004 274.042 54.0164 274.525C52.8644 276.019 51.4351 277.156 49.7284 277.939C49.4582 278.052 49.316 278.259 49.3017 278.557C49.3017 278.742 49.3017 278.934 49.3017 279.133C49.3017 279.332 49.2093 279.467 49.0244 279.539L30.5924 286.515C30.436 286.571 30.3009 286.536 30.1871 286.408C30.0306 286.237 29.8529 286.102 29.6538 286.003C29.6039 285.97 29.5451 285.955 29.486 285.959C29.4269 285.963 29.3705 285.986 29.3252 286.024C29.2799 286.062 29.248 286.114 29.2342 286.171C29.2204 286.229 29.2253 286.289 29.2484 286.344L29.6751 287.56C29.86 288.086 29.7818 288.57 29.4404 289.01C29.2271 289.281 28.9924 289.38 28.7364 289.309C12.4378 187.699 62.8058 98.4399 153.152 54.1946C174.507 43.7412 200.278 40.3279 224.619 38.6639C242.902 37.4052 265.28 40.4559 281.579 42.9732C311.261 47.5386 338.02 58.5679 361.856 76.0612Z" fill="#0012FD"/>
<path d="M361.856 76.0613C403.798 104.307 427.655 142.828 433.43 191.624C440.854 254.429 394.134 293.853 336.64 302.749C329.245 303.901 321.444 303.076 313.238 300.275C312.784 300.121 312.384 299.843 312.081 299.472C311.779 299.101 311.588 298.652 311.53 298.177C311.472 297.702 311.55 297.22 311.754 296.788C311.958 296.355 312.28 295.988 312.683 295.731C316.48 293.27 319.126 289.537 320.619 284.531C327.261 262.387 333.163 240.058 338.326 217.544C340.246 209.267 338.774 203.549 329.067 203.699C314.838 203.912 310.571 210.547 305.792 223.581C297.302 246.692 289.92 270.166 283.648 294.003C283.454 294.695 283.484 295.434 283.734 296.115L286.208 302.749C286.333 303.081 286.371 303.44 286.318 303.791C286.266 304.141 286.125 304.473 285.91 304.755C280.107 312.243 264.15 309.107 257.238 305.288C256.455 304.847 256.399 304.328 257.067 303.731C260.807 300.403 263.303 296.385 264.555 291.677C269.419 273.523 275.734 255.56 281.238 237.619C284.203 227.933 289.515 211.101 276.331 208.669C265.344 206.643 259.99 212.957 256 222.771C246.329 246.621 237.867 270.899 230.614 295.603C230.201 297.039 230.607 300.154 231.83 304.947C232.043 305.8 231.751 306.397 230.955 306.739C221.113 310.934 210.873 312.122 200.235 310.301C199.861 310.234 199.515 310.056 199.242 309.791C198.969 309.527 198.781 309.187 198.703 308.817C198.625 308.447 198.66 308.063 198.804 307.715C198.947 307.367 199.193 307.072 199.51 306.867C203.264 304.413 205.696 301.512 206.955 296.904C214.379 269.939 222.735 243.499 232.022 217.587C232.241 216.975 232.315 216.321 232.239 215.676C232.163 215.031 231.938 214.412 231.583 213.869C231.227 213.325 230.75 212.871 230.19 212.543C229.629 212.214 229 212.02 228.352 211.976C223.901 211.691 219.606 212.452 215.467 214.259C214.976 214.471 214.439 214.554 213.907 214.502C213.374 214.449 212.865 214.262 212.427 213.959C211.988 213.655 211.636 213.245 211.402 212.767C211.169 212.289 211.063 211.76 211.094 211.229C211.549 202.241 215.111 195.542 221.782 191.133C233.472 183.432 238.016 192.669 239.254 202.909C239.316 203.394 239.513 203.851 239.823 204.228C240.132 204.606 240.542 204.889 241.005 205.045C241.468 205.2 241.965 205.223 242.44 205.109C242.915 204.996 243.349 204.751 243.691 204.403C246.656 201.352 249.131 197.427 252.011 194.909C267.947 180.979 284.608 187.037 296.939 201.949C297.18 202.24 297.487 202.469 297.834 202.618C298.181 202.767 298.558 202.832 298.935 202.807C299.312 202.782 299.677 202.668 300.002 202.474C300.326 202.281 300.6 202.013 300.8 201.693C310.294 186.504 328.982 178.803 345.408 186.099C366.507 195.485 359.979 214.771 354.646 232.072C349.91 247.446 345.643 262.948 341.846 278.579C341.206 281.21 341.248 283.755 341.974 286.216C342.081 286.596 342.303 286.932 342.609 287.177C342.916 287.422 343.291 287.564 343.68 287.581C346.127 287.709 349.255 287.382 353.067 286.6C376.519 281.764 391.09 268.076 396.779 245.533C410.987 189.213 374.528 137.053 330.944 106.141C340.317 94.4933 350.621 84.4666 361.856 76.0613Z" fill="#0012FD"/>
<path d="M160.085 279.453C159.445 279.169 158.613 279.524 157.589 280.52C148.544 289.33 125.205 312.861 111.701 310.365C98.3467 307.89 93.5467 290.077 95.296 278.003C100.373 242.909 125.013 209.117 155.925 192.925C174.805 183.048 195.584 188.531 202.688 209.779C205.205 217.267 200.555 225.352 197.397 232.179C197.028 232.946 197.113 233.665 197.653 234.333L201.323 238.877C201.599 239.209 201.756 239.629 201.771 240.072C201.87 242.703 201.529 245.242 200.747 247.688C194.389 267.883 190.642 288.534 189.504 309.64C189.484 309.995 189.389 310.343 189.223 310.659C189.058 310.976 188.826 311.254 188.544 311.474C183.054 315.812 176.946 318.934 170.219 320.84C169.478 321.046 168.685 320.962 168 320.605C155.499 314.162 159.275 294.173 161.813 282.866C161.963 282.18 161.873 281.464 161.558 280.841C161.242 280.218 160.722 279.728 160.085 279.453ZM161.899 247.56C161.412 247.461 160.958 247.241 160.579 246.92C160.201 246.598 159.909 246.186 159.733 245.722C159.556 245.258 159.499 244.757 159.569 244.265C159.638 243.773 159.83 243.307 160.128 242.909C164.8 236.722 178.048 211.187 168.747 205.619C167.942 205.133 167.001 204.922 166.065 205.018C165.13 205.114 164.252 205.512 163.563 206.152C147.072 221.512 126.699 249.629 131.989 272.435C132.322 273.87 133.182 275.128 134.4 275.958C135.617 276.788 137.102 277.129 138.56 276.914C147.435 275.592 162.773 259.805 168.981 253.021C169.293 252.681 169.508 252.264 169.606 251.813C169.703 251.362 169.679 250.894 169.536 250.455C169.392 250.017 169.135 249.624 168.79 249.318C168.446 249.012 168.026 248.803 167.573 248.712L161.899 247.56Z" fill="#013BF6"/>
<path d="M67.4137 266.952C70.1443 300.296 77.035 330.504 97.2163 357.896C125.248 395.955 165.696 427.443 213.376 432.925C200.391 439.453 188.431 448.662 177.494 460.552C176.896 461.206 176.263 462.195 175.595 463.517C175.111 464.484 174.479 465.508 173.696 466.589C92.011 440.413 41.323 372.723 28.7363 289.309C28.9923 289.38 29.227 289.281 29.4403 289.011C29.7817 288.57 29.8599 288.086 29.675 287.56L29.2483 286.344C29.2253 286.289 29.2203 286.229 29.2341 286.171C29.2479 286.114 29.2798 286.062 29.3251 286.024C29.3704 285.986 29.4268 285.963 29.4859 285.959C29.545 285.955 29.6038 285.971 29.6537 286.003C29.8528 286.102 30.0306 286.237 30.187 286.408C30.3008 286.536 30.4359 286.571 30.5923 286.515L49.0243 279.539C49.2092 279.467 49.3017 279.332 49.3017 279.133C49.3017 278.934 49.3017 278.742 49.3017 278.557C49.3159 278.259 49.4581 278.052 49.7283 277.939C51.435 277.156 52.8643 276.019 54.0163 274.525C54.4003 274.042 54.8839 273.707 55.467 273.523L60.9497 271.816C61.5897 271.603 62.1301 271.24 62.571 270.728L64.3417 268.637C64.4337 268.547 64.5541 268.492 64.6824 268.481C64.8106 268.47 64.9386 268.504 65.0445 268.577C65.1504 268.651 65.2276 268.758 65.2628 268.882C65.2981 269.006 65.2892 269.138 65.2377 269.256C65.0101 269.683 65.0599 270.138 65.387 270.621C65.899 271.403 66.2759 271.339 66.5177 270.429L67.4137 266.952Z" fill="#0012FD"/>
<path d="M258.39 474.333H218.155C202.923 473.466 188.103 470.884 173.696 466.589C174.479 465.508 175.111 464.484 175.595 463.517C176.263 462.195 176.896 461.206 177.494 460.552C188.431 448.662 200.391 439.453 213.376 432.925C239.346 434.859 261.732 434.497 280.534 431.837C350.294 421.981 423.275 373.64 437.824 301.064C437.891 300.746 438.032 300.449 438.236 300.197C438.44 299.945 438.701 299.745 438.998 299.613C440.519 298.945 441.856 299.684 443.008 301.832C455.894 325.853 469.305 349.583 483.243 373.021C484.921 375.851 486.187 379.606 487.04 384.285C489.408 397.235 486.208 405.427 472.896 409.949C456.576 415.496 449.195 408.264 442.24 394.739C442.161 394.581 442.046 394.445 441.905 394.339C441.765 394.233 441.601 394.16 441.428 394.127C441.255 394.095 441.077 394.102 440.907 394.148C440.737 394.195 440.58 394.28 440.448 394.397C390.571 438.963 326.016 470.045 258.39 474.333Z" fill="#0012FD"/>
</g>
<defs>
<clipPath id="clip0_1094_854">
<rect width="480" height="437.333" fill="white" transform="translate(16 37)"/>
</clipPath>
</defs>
</svg>
